{"title":"Sleepless in Seattle 1993 1080p X264 Hi10P AC3 - alrmothe","uid":8622797,"size":9469067856,"categoryP":"video","categoryS":"hd___movies","magnet":"?xt=urn:btih:5ee6b347f4e54aec1ef697f27d407f443908029e&amp;dn=Sleepless+in+Seattle+1993+1080p+X264+Hi10P+AC3+-+alrmothe&amp;tr=udp%3A%2F%2Ftracker.openbittorrent.com%3A80&amp;tr=udp%3A%2F%2Fopen.demonii.com%3A1337&amp;tr=udp%3A%2F%2Ftracker.coppersurfer.tk%3A6969&amp;tr=udp%3A%2F%2Fexodus.desync.com%3A6969","seeders":0,"leechers":3,"uploader":".alrmothe","files":22,"time":1372424424,"description":"***************************************************************\n\nSleepless in Seattle 1993 1080p X264 Hi10P AC3 - alrmothe\n\n***************************************************************\n\nTitle : Sleepless in Seattle\nYEAR: 1993\nGENRE : Comedy | Drama | Romance  \nimdb URL :Sleepless in Seattle\nFormat: Matroska\nOverall bit rate: 12 Mbps\nFormat version: Version 4 / Version 2\nFile size:  8.81 GiB\nDuration:  1h 45mn\n\nSub :Arabic,English,Chinese,Danish,Dutch,Finnish,French,Hindi,Italian\nJapanese,Korean,Polish,Portuguese,Russian,Spanish,Norwegian,Swedish\n\n The same subtitle format used on BDs/HD-DVDs\n\n\n***************************************************************\n\nVideo\nFormat : AVC \nFormat/Info : Advanced Video Codec \nFormat profile : &lt;a class=&quot;__cf_email__&quot; href=&quot;/cdn-cgi/l/email-protection&quot; data-cfemail=&quot;f5bd9c929dc4c5b5b9c0dbc4&quot;&gt;[email&amp;#160;protected]&lt;/a&gt;&lt;script cf-hash='f9e31' type=&quot;text/javascript&quot;&gt;\n/* &lt;![CDATA[ */!function(){try{var t=&quot;currentScript&quot;in document?document.currentScript:function(){for(var t=document.getElementsByTagName(&quot;script&quot;),e=t.length;e--;)if(t[e].getAttribute(&quot;cf-hash&quot;))return t[e]}();if(t&amp;&amp;t.previousSibling){var e,r,n,i,c=t.previousSibling,a=c.getAttribute(&quot;data-cfemail&quot;);if(a){for(e=&quot;&quot;,r=parseInt(a.substr(0,2),16),n=2;a.length-n;n+=2)i=parseInt(a.substr(n,2),16)^r,e+=String.fromCharCode(i);e=document.createTextNode(e),c.parentNode.replaceChild(e,c)}}}catch(u){}}();/* ]]&gt; */&lt;/script&gt; \nFormat settings, CABAC : Yes \nFormat settings, ReFrames : 3 frames  \nCodec ID : V_MPEG4/ISO/AVC  \nBit rate : 11.1 Mbps \nWidth : 1920 pixels \nHeight : 1038 pixels \nDisplay aspect ratio : 1.85:1 \nFrame rate : 23.976 fps \nColor space : YUV \nChroma subsampling : 4:2:0 \nBit depth : 8 bits \nScan type : Progressive \nBits/(Pixel*Frame) : 0.233 \nStream size: 8.17 GiB \n\n\nAudio#1 \nFormat: AC3\nBit rate :640 Kbps\nChannel(s) : 6 channels\nChannel positions:Front: L C R, Side: L R, LFE\nSampling rate: 48.0 KHz\nBit depth: 16bits\nCompression mode: Lossy\nStream size: 481 GiB\nLanguage : English\n\n\n***************************************************************\nScreenshots &lt;a href=&quot;\nhttp://img221.imageshack.us/img221/8507/afc.png&quot; rel=&quot;nofollow&quot; target=&quot;_NEW&quot;&gt;\nhttp://img221.imageshack.us/img221/8507/afc.png&lt;/a&gt; &lt;a href=&quot;\nhttp://img801.imageshack.us/img801/6281/buwl.png&quot; rel=&quot;nofollow&quot; target=&quot;_NEW&quot;&gt;\nhttp://img801.imageshack.us/img801/6281/buwl.png&lt;/a&gt; &lt;a href=&quot;\nhttp://img15.imageshack.us/img15/9913/4is.png&quot; rel=&quot;nofollow&quot; target=&quot;_NEW&quot;&gt;\nhttp://img15.imageshack.us/img15/9913/4is.png&lt;/a&gt; &lt;a href=&quot;\nhttp://img827.imageshack.us/img827/3644/x04.png&quot; rel=&quot;nofollow&quot; target=&quot;_NEW&quot;&gt;\nhttp://img827.imageshack.us/img827/3644/x04.png&lt;/a&gt; &lt;a href=&quot;\nhttp://img843.imageshack.us/img843/3382/gxl.png&quot; rel=&quot;nofollow&quot; target=&quot;_NEW&quot;&gt;\nhttp://img843.imageshack.us/img843/3382/gxl.png&lt;/a&gt; &lt;a href=&quot;\nhttp://img199.imageshack.us/img199/5428/q40.png&quot; rel=&quot;nofollow&quot; target=&quot;_NEW&quot;&gt;\nhttp://img199.imageshack.us/img199/5428/q40.png&lt;/a&gt;\n","torrent":{"xt":"urn:btih:5ee6b347f4e54aec1ef697f27d407f443908029e","amp;dn":"Sleepless+in+Seattle+1993+1080p+X264+Hi10P+AC3+-+alrmothe","amp;tr":["udp%3A%2F%2Ftracker.openbittorrent.com%3A80","udp%3A%2F%2Fopen.demonii.com%3A1337","udp%3A%2F%2Ftracker.coppersurfer.tk%3A6969","udp%3A%2F%2Fexodus.desync.com%3A6969"],"infoHash":"5ee6b347f4e54aec1ef697f27d407f443908029e","infoHashBuffer":{"type":"Buffer","data":[94,230,179,71,244,229,74,236,30,246,151,242,125,64,127,68,57,8,2,158]},"announce":[],"urlList":[]}}